HIERARCHY
ROOT Hips
{
	OFFSET 0.053599 88.859886 3.107447
	CHANNELS 6 Xposition Yposition Zposition Zrotation Yrotation Xrotation 
	JOINT Spine
	{
		OFFSET -0.000000 8.814246 -2.080107
		CHANNELS 3 Zrotation Yrotation Xrotation
		JOINT Spine1
		{
			OFFSET 0.000000 8.844141 0.000000
			CHANNELS 3 Zrotation Yrotation Xrotation
			JOINT Spine2
			{
				OFFSET -0.000000 11.682268 0.000000
				CHANNELS 3 Zrotation Yrotation Xrotation
				JOINT Spine3
				{
					OFFSET 0.000000 11.746700 0.000000
					CHANNELS 3 Zrotation Yrotation Xrotation
					JOINT Neck
					{
						OFFSET -0.000000 17.658264 -0.000000
						CHANNELS 3 Zrotation Yrotation Xrotation
						JOINT Neck1
						{
							OFFSET -0.000000 5.101515 -0.000000
							CHANNELS 3 Zrotation Yrotation Xrotation
							JOINT Head
							{
								OFFSET 0.000000 5.101515 0.000000
								CHANNELS 3 Zrotation Yrotation Xrotation
								JOINT HeadEnd
								{
									OFFSET 0.000000 11.655085 0.000000
									CHANNELS 3 Zrotation Yrotation Xrotation
									End Site
									{
										OFFSET 0.000000 0.000000 0.000000
									}
								}
							}
						}
					}
					JOINT RightShoulder
					{
						OFFSET -2.625389 11.175210 0.000000
						CHANNELS 3 Zrotation Yrotation Xrotation
						JOINT RightArm
						{
							OFFSET -0.000000 10.434715 -0.000000
							CHANNELS 3 Zrotation Yrotation Xrotation
							JOINT RightForeArm
							{
								OFFSET -0.000000 29.628420 0.000000
								CHANNELS 3 Zrotation Yrotation Xrotation
								JOINT RightHand
								{
									OFFSET -0.000000 22.857611 0.000000
									CHANNELS 3 Zrotation Yrotation Xrotation
									JOINT RightHandThumb1
									{
										OFFSET -2.867323 3.959563 2.944291
										CHANNELS 3 Zrotation Yrotation Xrotation
										JOINT RightHandThumb2
										{
											OFFSET 0.000000 3.350399 0.000000
											CHANNELS 3 Zrotation Yrotation Xrotation
											JOINT RightHandThumb3
											{
												OFFSET 0.000000 3.756509 -0.000000
												CHANNELS 3 Zrotation Yrotation Xrotation
												JOINT RightHandThumb4
												{
													OFFSET 0.000000 3.147345 0.000000
													CHANNELS 3 Zrotation Yrotation Xrotation
													End Site
													{
														OFFSET 0.000000 0.000000 0.000000
													}
												}
											}
										}
									}
									JOINT RightHandIndex1
									{
										OFFSET -0.086752 10.030893 2.345280
										CHANNELS 3 Zrotation Yrotation Xrotation
										JOINT RightHandIndex2
										{
											OFFSET -0.000000 4.061090 0.000000
											CHANNELS 3 Zrotation Yrotation Xrotation
											JOINT RightHandIndex3
											{
												OFFSET -0.000000 3.248873 0.000000
												CHANNELS 3 Zrotation Yrotation Xrotation
												JOINT RightHandIndex4
												{
													OFFSET 0.000000 2.639709 -0.000000
													CHANNELS 3 Zrotation Yrotation Xrotation
													End Site
													{
														OFFSET 0.000000 0.000000 0.000000
													}
												}
											}
										}
									}
									JOINT RightHandMiddle1
									{
										OFFSET 0.104102 9.502952 0.006768
										CHANNELS 3 Zrotation Yrotation Xrotation
										JOINT RightHandMiddle2
										{
											OFFSET 0.000000 4.568727 0.000000
											CHANNELS 3 Zrotation Yrotation Xrotation
											JOINT RightHandMiddle3
											{
												OFFSET 0.000000 3.654981 -0.000000
												CHANNELS 3 Zrotation Yrotation Xrotation
												JOINT RightHandMiddle4
												{
													OFFSET -0.000000 2.741236 -0.000000
													CHANNELS 3 Zrotation Yrotation Xrotation
													End Site
													{
														OFFSET 0.000000 0.000000 0.000000
													}
												}
											}
										}
									}
									JOINT RightHandRing1
									{
										OFFSET 0.086752 8.921708 -2.267442
										CHANNELS 3 Zrotation Yrotation Xrotation
										JOINT RightHandRing2
										{
											OFFSET -0.000000 4.061090 0.000000
											CHANNELS 3 Zrotation Yrotation Xrotation
											JOINT RightHandRing3
											{
												OFFSET 0.000000 3.654981 -0.000000
												CHANNELS 3 Zrotation Yrotation Xrotation
												JOINT RightHandRing4
												{
													OFFSET 0.000000 2.741236 -0.000000
													CHANNELS 3 Zrotation Yrotation Xrotation
													End Site
													{
														OFFSET 0.000000 0.000000 0.000000
													}
												}
											}
										}
									}
									JOINT RightHandPinky1
									{
										OFFSET -0.173504 7.976997 -4.467199
										CHANNELS 3 Zrotation Yrotation Xrotation
										JOINT RightHandPinky2
										{
											OFFSET 0.000000 3.350399 -0.000000
											CHANNELS 3 Zrotation Yrotation Xrotation
											JOINT RightHandPinky3
											{
												OFFSET -0.000000 2.842763 0.000000
												CHANNELS 3 Zrotation Yrotation Xrotation
												JOINT RightHandPinky4
												{
													OFFSET -0.000000 2.639709 0.000000
													CHANNELS 3 Zrotation Yrotation Xrotation
													End Site
													{
														OFFSET 0.000000 0.000000 0.000000
													}
												}
											}
										}
									}
									JOINT RightForeArmEnd
									{
										OFFSET 0.000000 0.000000 0.000000
										CHANNELS 3 Zrotation Yrotation Xrotation
										End Site
										{
											OFFSET 0.000000 0.000000 0.000000
										}
									}
								}
								JOINT RightArmEnd
								{
									OFFSET 0.000000 0.000000 0.000000
									CHANNELS 3 Zrotation Yrotation Xrotation
									End Site
									{
										OFFSET 0.000000 0.000000 0.000000
									}
								}
							}
						}
					}
					JOINT LeftShoulder
					{
						OFFSET 2.625389 11.175210 0.000000
						CHANNELS 3 Zrotation Yrotation Xrotation
						JOINT LeftArm
						{
							OFFSET 0.000000 10.813635 -0.000000
							CHANNELS 3 Zrotation Yrotation Xrotation
							JOINT LeftForeArm
							{
								OFFSET 0.000000 28.724781 0.000000
								CHANNELS 3 Zrotation Yrotation Xrotation
								JOINT LeftHand
								{
									OFFSET 0.644384 25.716167 -0.328871
									CHANNELS 3 Zrotation Yrotation Xrotation
									JOINT LeftHandThumb1
									{
										OFFSET 2.867323 3.959563 2.944291
										CHANNELS 3 Zrotation Yrotation Xrotation
										JOINT LeftHandThumb2
										{
											OFFSET 0.000000 3.350399 0.000000
											CHANNELS 3 Zrotation Yrotation Xrotation
											JOINT LeftHandThumb3
											{
												OFFSET -0.000000 3.756509 0.000000
												CHANNELS 3 Zrotation Yrotation Xrotation
												JOINT LeftHandThumb4
												{
													OFFSET -0.000000 3.100000 0.000000
													CHANNELS 3 Zrotation Yrotation Xrotation
													End Site
													{
														OFFSET 0.000000 0.000000 0.000000
													}
												}
											}
										}
									}
									JOINT LeftHandIndex1
									{
										OFFSET 0.086752 10.030893 2.345280
										CHANNELS 3 Zrotation Yrotation Xrotation
										JOINT LeftHandIndex2
										{
											OFFSET -0.000000 4.061090 -0.000000
											CHANNELS 3 Zrotation Yrotation Xrotation
											JOINT LeftHandIndex3
											{
												OFFSET 0.000000 3.248873 -0.000000
												CHANNELS 3 Zrotation Yrotation Xrotation
												JOINT LeftHandIndex4
												{
													OFFSET 0.000000 2.639709 -0.000000
													CHANNELS 3 Zrotation Yrotation Xrotation
													End Site
													{
														OFFSET 0.000000 0.000000 0.000000
													}
												}
											}
										}
									}
									JOINT LeftHandMiddle1
									{
										OFFSET -0.104102 9.502952 0.006768
										CHANNELS 3 Zrotation Yrotation Xrotation
										JOINT LeftHandMiddle2
										{
											OFFSET -0.000000 4.568727 -0.000000
											CHANNELS 3 Zrotation Yrotation Xrotation
											JOINT LeftHandMiddle3
											{
												OFFSET 0.000000 3.654981 0.000000
												CHANNELS 3 Zrotation Yrotation Xrotation
												JOINT LeftHandMiddle4
												{
													OFFSET 0.000000 2.741236 -0.000000
													CHANNELS 3 Zrotation Yrotation Xrotation
													End Site
													{
														OFFSET 0.000000 0.000000 0.000000
													}
												}
											}
										}
									}
									JOINT LeftHandRing1
									{
										OFFSET -0.086752 8.921708 -2.267442
										CHANNELS 3 Zrotation Yrotation Xrotation
										JOINT LeftHandRing2
										{
											OFFSET 0.000000 4.061090 0.000000
											CHANNELS 3 Zrotation Yrotation Xrotation
											JOINT LeftHandRing3
											{
												OFFSET 0.000000 3.654981 0.000000
												CHANNELS 3 Zrotation Yrotation Xrotation
												JOINT LeftHandRing4
												{
													OFFSET 0.000000 2.741236 0.000000
													CHANNELS 3 Zrotation Yrotation Xrotation
													End Site
													{
														OFFSET 0.000000 0.000000 0.000000
													}
												}
											}
										}
									}
									JOINT LeftHandPinky1
									{
										OFFSET 0.173504 7.976997 -4.467199
										CHANNELS 3 Zrotation Yrotation Xrotation
										JOINT LeftHandPinky2
										{
											OFFSET -0.000000 3.350399 -0.000000
											CHANNELS 3 Zrotation Yrotation Xrotation
											JOINT LeftHandPinky3
											{
												OFFSET 0.000000 2.842763 0.000000
												CHANNELS 3 Zrotation Yrotation Xrotation
												JOINT LeftHandPinky4
												{
													OFFSET -0.000000 2.639709 -0.000000
													CHANNELS 3 Zrotation Yrotation Xrotation
													End Site
													{
														OFFSET 0.000000 0.000000 0.000000
													}
												}
											}
										}
									}
									JOINT LeftForeArmEnd
									{
										OFFSET 0.000000 0.000000 0.000000
										CHANNELS 3 Zrotation Yrotation Xrotation
										End Site
										{
											OFFSET 0.000000 0.000000 0.000000
										}
									}
								}
								JOINT LeftArmEnd
								{
									OFFSET 0.000000 0.000000 0.000000
									CHANNELS 3 Zrotation Yrotation Xrotation
									End Site
									{
										OFFSET 0.000000 0.000000 0.000000
									}
								}
							}
						}
					}
				}
			}
		}
	}
	JOINT RightUpLeg
	{
		OFFSET -11.289943 0.000000 0.000000
		CHANNELS 3 Zrotation Yrotation Xrotation
		JOINT RightLeg
		{
			OFFSET 0.000000 -38.200325 0.000000
			CHANNELS 3 Zrotation Yrotation Xrotation
			JOINT RightFoot
			{
				OFFSET -0.000000 -39.900856 -0.000000
				CHANNELS 3 Zrotation Yrotation Xrotation
				JOINT RightToeBase
				{
					OFFSET 0.000000 0.000000 15.261641
					CHANNELS 3 Zrotation Yrotation Xrotation
					JOINT RightToeBaseEnd
					{
						OFFSET 0.000000 0.000000 7.370709
						CHANNELS 3 Zrotation Yrotation Xrotation
						End Site
						{
							OFFSET 0.000000 0.000000 0.000000
						}
					}
				}
				JOINT RightLegEnd
				{
					OFFSET 0.000000 0.000000 0.000000
					CHANNELS 3 Zrotation Yrotation Xrotation
					End Site
					{
						OFFSET 0.000000 0.000000 0.000000
					}
				}
			}
			JOINT RightUpLegEnd
			{
				OFFSET 0.000000 0.000000 0.000000
				CHANNELS 3 Zrotation Yrotation Xrotation
				End Site
				{
					OFFSET 0.000000 0.000000 0.000000
				}
			}
		}
	}
	JOINT LeftUpLeg
	{
		OFFSET 11.315661 -0.000000 0.000000
		CHANNELS 3 Zrotation Yrotation Xrotation
		JOINT LeftLeg
		{
			OFFSET -0.000000 -38.200325 -0.000000
			CHANNELS 3 Zrotation Yrotation Xrotation
			JOINT LeftFoot
			{
				OFFSET 0.000000 -39.900856 -0.000000
				CHANNELS 3 Zrotation Yrotation Xrotation
				JOINT LeftToeBase
				{
					OFFSET -0.000000 -0.000000 15.261641
					CHANNELS 3 Zrotation Yrotation Xrotation
					JOINT LeftToeBaseEnd
					{
						OFFSET 0.000000 -0.000000 7.539996
						CHANNELS 3 Zrotation Yrotation Xrotation
						End Site
						{
							OFFSET 0.000000 0.000000 0.000000
						}
					}
				}
				JOINT LeftLegEnd
				{
					OFFSET 0.000000 0.000000 0.000000
					CHANNELS 3 Zrotation Yrotation Xrotation
					End Site
					{
						OFFSET 0.000000 0.000000 0.000000
					}
				}
			}
			JOINT LeftUpLegEnd
			{
				OFFSET 0.000000 0.000000 0.000000
				CHANNELS 3 Zrotation Yrotation Xrotation
				End Site
				{
					OFFSET 0.000000 0.000000 0.000000
				}
			}
		}
	}
}
MOTION
Frames: 4
Frame Time: 0.016667
0.351627 88.742172 4.317263 -0.066798 -2.193168 -10.082076 0.859633 0.077138 7.302769 -0.751429 0.091814 2.447127 0.140571 -0.989139 4.084476 -0.928814 -0.087331 3.616493 0.363790 1.837033 4.176243 0.305345 2.190105 -3.213392 -0.626692 -0.788839 -18.964563 0.000000 0.000000 0.000000 92.808929 -0.334487 10.354331 65.082954 -30.856546 5.490255 0.045980 13.704339 23.617958 5.017097 8.769130 -6.197788 20.335056 29.949978 61.642380 -8.929451 -13.028566 -21.880907 -6.670379 -8.649382 -15.193999 0.000000 0.000000 0.000000 15.845612 -11.393794 -0.399243 11.654987 0.323409 1.356729 11.404613 -0.102811 1.318348 0.000000 0.000000 0.000000 14.529712 -5.893752 -1.075850 10.245522 0.427870 0.539726 10.706298 -0.058084 0.469067 0.000000 0.000000 0.000000 14.419911 1.949147 -0.542424 10.699506 -0.880893 -0.801045 10.585588 0.067362 -0.570067 0.000000 0.000000 0.000000 12.628097 10.479083 -1.101750 9.988514 -1.649014 -2.305979 9.704620 0.241509 -1.968897 0.000000 0.000000 0.000000 0.000000 0.000000 0.000000 0.000000 0.000000 0.000000 -90.003304 0.052884 6.311526 -71.548065 18.885422 -5.754236 -1.033106 -8.936322 45.551098 -2.001092 -16.429617 -14.749452 -19.745239 -30.111294 62.079094 8.488976 11.917793 -20.240377 6.264090 8.016145 -14.252106 0.000000 0.000000 0.000000 -14.729589 -6.028517 0.850217 -9.618478 0.306258 -1.332496 -9.438085 -0.132989 -1.268765 0.000000 0.000000 0.000000 -14.283257 -0.984186 -0.699809 -9.351254 0.406329 -0.574828 -9.428534 -0.071944 -0.483809 0.000000 0.000000 0.000000 -17.071388 7.133641 -1.713620 -11.129406 -0.873217 0.903315 -10.959290 0.082959 0.709872 0.000000 0.000000 0.000000 -19.207191 15.766058 -3.578513 -12.317048 -1.572621 2.788789 -12.067087 0.362276 2.492266 0.000000 0.000000 0.000000 0.000000 0.000000 0.000000 0.000000 0.000000 0.000000 -0.950504 -9.069166 14.639837 -0.074614 -0.682482 5.065707 -2.582944 -7.193719 17.227070 -0.868978 0.877306 -18.399820 0.000000 0.000000 0.000000 0.000000 0.000000 0.000000 0.000000 0.000000 0.000000 -1.570672 -5.309029 9.271558 0.060319 0.323288 10.177469 3.887188 0.113490 16.789732 0.315209 -0.385731 -20.952389 0.000000 0.000000 0.000000 0.000000 0.000000 0.000000 0.000000 0.000000 0.000000 
0.351028 88.744659 4.344242 -0.055853 -2.185049 -10.084181 0.882256 0.073987 7.296148 -0.765700 0.091600 2.421993 0.132572 -0.973466 4.087045 -0.937292 -0.083645 3.589185 0.345989 1.830877 4.119749 0.317741 2.184611 -3.225161 -0.617598 -0.791194 -18.948620 0.000000 0.000000 0.000000 92.702827 -0.323837 10.383586 65.233086 -30.892897 5.372516 0.027395 13.697803 23.799137 5.020992 8.611291 -6.256946 20.344839 29.945198 61.630085 -8.942104 -13.045022 -21.914169 -6.678434 -8.659801 -15.214704 0.000000 0.000000 0.000000 15.916259 -11.400266 -0.366433 11.705950 0.320066 1.366181 11.457964 -0.105650 1.325267 0.000000 0.000000 0.000000 14.582048 -5.901886 -1.068019 10.290244 0.426793 0.543549 10.753033 -0.058550 0.471192 0.000000 0.000000 0.000000 14.447556 1.942736 -0.564135 10.720008 -0.879342 -0.805210 10.618009 0.068586 -0.572932 0.000000 0.000000 0.000000 12.641025 10.477574 -1.145110 9.992729 -1.642922 -2.315929 9.719014 0.246239 -1.977890 0.000000 0.000000 0.000000 0.000000 0.000000 0.000000 0.000000 0.000000 0.000000 -89.900520 0.040696 6.321344 -71.664352 18.958775 -5.817781 -1.028515 -8.926806 45.712826 -1.873032 -16.440025 -14.799070 -19.752775 -30.108412 62.068943 8.497380 11.933455 -20.267548 6.272202 8.029500 -14.267205 0.000000 0.000000 0.000000 -14.759130 -6.017800 0.895602 -9.643402 0.305674 -1.324362 -9.456524 -0.133434 -1.263091 0.000000 0.000000 0.000000 -14.275225 -0.981961 -0.673638 -9.389995 0.406749 -0.571116 -9.463403 -0.071700 -0.479996 0.000000 0.000000 0.000000 -17.082869 7.134600 -1.705731 -11.181311 -0.872724 0.899668 -11.013139 0.083278 0.706089 0.000000 0.000000 0.000000 -19.236927 15.767593 -3.607918 -12.373470 -1.571177 2.777917 -12.117038 0.363808 2.482149 0.000000 0.000000 0.000000 0.000000 0.000000 0.000000 0.000000 0.000000 0.000000 -0.992423 -9.093048 14.636025 -0.074423 -0.683405 5.084657 -2.548942 -7.184405 17.231659 -0.873072 0.876150 -18.407921 0.000000 0.000000 0.000000 0.000000 0.000000 0.000000 0.000000 0.000000 0.000000 -1.576932 -5.312493 9.288728 0.060445 0.324291 10.166912 3.875597 0.110748 16.819483 0.316740 -0.389970 -20.966259 0.000000 0.000000 0.000000 0.000000 0.000000 0.000000 0.000000 0.000000 0.000000 
0.351210 88.747467 4.369486 -0.048443 -2.168430 -10.088633 0.910073 0.069826 7.289623 -0.784769 0.092164 2.394826 0.128617 -0.957855 4.095634 -0.947205 -0.080278 3.562880 0.334188 1.824273 4.057747 0.333067 2.181543 -3.237309 -0.608694 -0.795109 -18.933937 0.000000 0.000000 0.000000 92.595688 -0.313269 10.411314 65.387756 -30.901058 5.234306 0.009710 13.720428 24.066568 5.008272 8.421521 -6.307213 20.351145 29.941847 61.621368 -8.949793 -13.055720 -21.936945 -6.682724 -8.665868 -15.227844 0.000000 0.000000 0.000000 15.954028 -11.401962 -0.320899 11.743939 0.316608 1.376565 11.498599 -0.108466 1.333301 0.000000 0.000000 0.000000 14.605783 -5.905435 -1.054640 10.323574 0.425796 0.547796 10.788792 -0.058896 0.473622 0.000000 0.000000 0.000000 14.450922 1.940140 -0.593267 10.729143 -0.877866 -0.809709 10.640519 0.069779 -0.575958 0.000000 0.000000 0.000000 12.637892 10.479641 -1.205807 9.988943 -1.636943 -2.327189 9.726916 0.251214 -1.987554 0.000000 0.000000 0.000000 0.000000 0.000000 0.000000 0.000000 0.000000 0.000000 -89.797279 0.027010 6.330302 -71.775566 19.045540 -5.878448 -1.019280 -8.941924 45.962383 -1.715640 -16.431541 -14.822075 -19.755497 -30.107418 62.063480 8.499440 11.940682 -20.281130 6.275852 8.037918 -14.272780 0.000000 0.000000 0.000000 -14.759017 -6.013457 0.974140 -9.654765 0.305787 -1.310665 -9.460939 -0.133377 -1.252386 0.000000 0.000000 0.000000 -14.236017 -0.984963 -0.624131 -9.418417 0.407495 -0.565329 -9.487640 -0.071164 -0.474446 0.000000 0.000000 0.000000 -17.065256 7.131806 -1.687694 -11.224597 -0.872591 0.893766 -11.058756 0.083357 0.700522 0.000000 0.000000 0.000000 -19.254129 15.766367 -3.641425 -12.422741 -1.570852 2.761713 -12.160195 0.364666 2.467187 0.000000 0.000000 0.000000 0.000000 0.000000 0.000000 0.000000 0.000000 0.000000 -1.034136 -9.127471 14.631777 -0.073989 -0.683762 5.101677 -2.513874 -7.187135 17.240501 -0.876268 0.874843 -18.416370 0.000000 0.000000 0.000000 0.000000 0.000000 0.000000 0.000000 0.000000 0.000000 -1.575861 -5.317134 9.302141 0.060767 0.325821 10.156268 3.863306 0.099432 16.855017 0.318687 -0.394443 -20.982418 0.000000 0.000000 0.000000 0.000000 0.000000 0.000000 0.000000 0.000000 0.000000 
0.352532 88.750618 4.393022 -0.044694 -2.144704 -10.097132 0.939655 0.065117 7.283397 -0.803703 0.092125 2.365760 0.124801 -0.940695 4.111964 -0.957430 -0.077603 3.539341 0.326319 1.821419 3.991070 0.349770 2.182174 -3.251095 -0.600706 -0.799425 -18.924528 0.000000 0.000000 0.000000 92.488876 -0.303037 10.432783 65.548729 -30.873779 5.067106 -0.007848 13.777077 24.462578 4.975507 8.211256 -6.346920 20.354292 29.940092 61.616375 -8.952271 -13.061271 -21.949074 -6.683294 -8.667660 -15.233319 0.000000 0.000000 0.000000 15.958958 -11.399677 -0.261852 11.770840 0.313151 1.387220 11.527773 -0.111072 1.341851 0.000000 0.000000 0.000000 14.602544 -5.904966 -1.034881 10.346773 0.424952 0.552212 10.815568 -0.059100 0.476120 0.000000 0.000000 0.000000 14.432284 1.940719 -0.633104 10.728836 -0.876575 -0.814322 10.654733 0.070837 -0.579063 0.000000 0.000000 0.000000 12.620582 10.484797 -1.291335 9.979323 -1.631331 -2.338926 9.730840 0.256219 -1.997253 0.000000 0.000000 0.000000 0.000000 0.000000 0.000000 0.000000 0.000000 0.000000 -89.694122 0.013140 6.332877 -71.886528 19.128292 -5.944919 -1.005794 -8.986521 46.308723 -1.555675 -16.403397 -14.818281 -19.754089 -30.108299 62.062519 8.495304 11.940290 -20.282028 6.275323 8.041887 -14.269564 0.000000 0.000000 0.000000 -14.735699 -6.014605 1.079817 -9.655231 0.306826 -1.291114 -9.454170 -0.132597 -1.236438 0.000000 0.000000 0.000000 -14.170879 -0.992293 -0.557213 -9.438023 0.408642 -0.557498 -9.503361 -0.070268 -0.467197 0.000000 0.000000 0.000000 -17.020485 7.125515 -1.666196 -11.258157 -0.872863 0.885521 -11.095578 0.083104 0.693150 0.000000 0.000000 0.000000 -19.258812 15.762623 -3.684621 -12.462944 -1.571810 2.739981 -12.194048 0.364655 2.447531 0.000000 0.000000 0.000000 0.000000 0.000000 0.000000 0.000000 0.000000 0.000000 -1.075277 -9.169978 14.630072 -0.073346 -0.683516 5.115977 -2.478021 -7.199525 17.253691 -0.878527 0.873460 -18.425581 0.000000 0.000000 0.000000 0.000000 0.000000 0.000000 0.000000 0.000000 0.000000 -1.568856 -5.322342 9.312485 0.061235 0.327874 10.150979 3.850813 0.080084 16.893429 0.320652 -0.398763 -21.001019 0.000000 0.000000 0.000000 0.000000 0.000000 0.000000 0.000000 0.000000 0.000000 
